<?xml version="1.0" encoding="UTF-8" standalone="no"?>
<svg width="16px" height="10px" viewBox="0 0 16 10" version="1.1" xmlns="http://www.w3.org/2000/svg" xmlns:xlink="http://www.w3.org/1999/xlink">
    <!-- Generator: Sketch 48.1 (47250) - http://www.bohemiancoding.com/sketch -->
    <title>angle-arrow-down</title>
    <desc>Created with Sketch.</desc>
    <defs></defs>
    <g id="MR-Mobile" stroke="none" stroke-width="1" fill="none" fill-rule="evenodd" transform="translate(-260.000000, -4352.000000)">
        <g id="Classes" transform="translate(0.000000, 2392.000000)" fill="#000000" fill-rule="nonzero">
            <g id="Date" transform="translate(38.000000, 1254.000000)">
                <g id="show-more" transform="translate(62.000000, 701.000000)">
                    <g id="angle-arrow-down" transform="translate(160.000000, 5.000000)">
                        <path d="M15.8361825,1.04856287 L15.0348351,0.193892216 C14.9280561,0.079760479 14.8050526,0.0228742515 14.665993,0.0228742515 C14.5272702,0.0228742515 14.4043228,0.079760479 14.2975439,0.193892216 L7.99809123,6.91263473 L1.6989193,0.194071856 C1.59208421,0.0799401198 1.46913684,0.0230538922 1.33024561,0.0230538922 C1.19129825,0.0230538922 1.06835088,0.0799401198 0.96157193,0.194071856 L0.160336842,1.0488024 C0.0533333333,1.16269461 0,1.29383234 0,1.44203593 C0,1.59011976 0.0535017544,1.72125749 0.160336842,1.8351497 L7.62941754,9.80197605 C7.73619649,9.91592814 7.8592,9.97287425 7.99809123,9.97287425 C8.13698246,9.97287425 8.2597614,9.91592814 8.36648421,9.80197605 L15.8361825,1.8351497 C15.9429614,1.7211976 15.996014,1.59005988 15.996014,1.44203593 C15.996014,1.29383234 15.9429614,1.16269461 15.8361825,1.04856287 Z" id="Shape"></path>
                    </g>
                </g>
            </g>
        </g>
    </g>
</svg>