<?xml version="1.0" encoding="UTF-8" standalone="no"?>
<svg width="116px" height="125px" viewBox="0 0 116 125" version="1.1" xmlns="http://www.w3.org/2000/svg" xmlns:xlink="http://www.w3.org/1999/xlink">
    <!-- Generator: Sketch 48.1 (47250) - http://www.bohemiancoding.com/sketch -->
    <title>Energise</title>
    <desc>Created with Sketch.</desc>
    <defs></defs>
    <g id="MR-Mobile" stroke="none" stroke-width="1" fill="none" fill-rule="evenodd" transform="translate(-259.000000, -1074.000000)">
        <g id="benefits" transform="translate(-33.000000, 1026.000000)">
            <g id="Energise" transform="translate(290.000000, 39.000000)">
                <text id="ENERGISE.." transform="translate(46.324350, 22.031757) rotate(-9.000000) translate(-46.324350, -22.031757) " font-family="DKMoreOrLess-Regular, DK More Or Less" font-size="24" font-weight="normal">
                    <tspan x="2.09234955" y="31.531757" fill="#2B2C32">ENERGISE</tspan>
                    <tspan x="84.5563495" y="31.531757" fill="#0E0E0E">..</tspan>
                </text>
                <path d="M106.854295,132.654971 C131.787579,132.654971 152,112.442329 152,87.5087719 C152,64.7469423 143.086689,47.9447275 121.183149,44.8376398 C119.093312,44.5411897 109.025998,42.3625731 106.854295,42.3625731 C86.0840403,42.3625731 66.9714711,52.9950508 61.7085891,72.0925105 C60.6537374,75.9202588 61.7085891,83.345696 61.7085891,87.5087719 C61.7085891,102.192541 67.8388784,111.984066 78.6949674,120.229032 C86.2728996,125.984307 96.6046188,132.654971 106.854295,132.654971 Z" id="Oval-3" stroke="#AEC1B9" stroke-width="1.40350877"></path>
                <g id="heart" transform="translate(83.695906, 66.690058)" fill="#2B2C32" fill-rule="nonzero">
                    <path d="M44.8380446,12.4158682 C44.5643485,9.41211433 42.9699638,8.02705506 41.3749261,5.94783473 C39.1493477,3.04666951 36.4066422,0.000861256115 32.6833213,0.000861256115 C28.4250221,0.000861256115 24.526044,2.28577373 22.332113,5.94783473 C20.1580483,2.23840464 16.4188643,0 12.2288015,0 C5.83789778,0 0.729666292,5.22007332 0.0749419989,12.4150069 C0.023116857,12.7328104 -0.189366225,14.4053698 0.456720544,17.1329679 C1.38784559,21.0671858 3.53858898,24.645705 6.67487382,27.4792376 C12.1268706,31.8031886 16.1769636,35.1632809 18.8251528,37.5595144 C19.6540467,38.3095452 20.8195784,39.6688493 22.3217479,41.6374269 L39.6116696,27.4792376 C42.7479545,24.6448437 43.5242772,21.0680471 44.4554023,17.1329679 C45.1014891,14.406231 44.889006,12.7336717 44.8380446,12.4158682 Z M42.7736764,16.7385126 C42.1621398,19.3196972 39.953525,23.6053076 37.0815484,26.199411 L22.332113,39.320648 C15.4277303,33.0705566 10.5956116,28.696811 7.835757,26.199411 C4.95859787,23.6035851 2.98924248,20.3308119 2.1384464,16.7376513 C1.52690973,14.1564668 1.77826166,12.6983602 1.77912542,12.6888863 C2.26731987,7.26618269 5.6966283,4.91847912 10.0009856,3.78593321 C10.7817296,3.58050685 11.3864201,1.72251223 12.2288015,1.72251223 C14.5705968,2.76442945 20.4184468,5.5657974 21.5322783,8.19485194 L22.3277942,10.074974 L23.1233101,8.19485194 C24.7877609,4.26407903 28.5399012,1.72337349 32.6841851,1.72337349 C36.3234852,1.72337349 37.7316431,2.72769955 39.6116696,5.94783473 C40.565497,7.58156336 42.9393833,10.5353781 43.1321337,12.6845801 C43.1338612,12.6983602 43.3852131,14.157328 42.7736764,16.7385126 Z" id="Shape"></path>
                </g>
            </g>
        </g>
    </g>
</svg>