<?xml version="1.0" encoding="UTF-8" standalone="no"?>
<svg width="41px" height="39px" viewBox="0 0 41 39" version="1.1" xmlns="http://www.w3.org/2000/svg" xmlns:xlink="http://www.w3.org/1999/xlink">
    <!-- Generator: Sketch 48.1 (47250) - http://www.bohemiancoding.com/sketch -->
    <title>logo</title>
    <desc>Created with Sketch.</desc>
    <defs></defs>
    <g id="MR-Mobile" stroke="none" stroke-width="1" fill="none" fill-rule="evenodd" transform="translate(-104.000000, -5323.000000)">
        <g id="Social" transform="translate(0.000000, 5182.000000)">
            <g id="social-content" transform="translate(99.000000, 91.000000)">
                <g id="social" transform="translate(5.000000, 49.000000)">
                    <g id="logo" transform="translate(0.000000, 1.000000)">
                        <rect id="Rectangle" fill="#000000" fill-rule="nonzero" x="0" y="0" width="40.32" height="38.976"></rect>
                        <polyline id="Left-border" stroke="#FFFFFF" stroke-width="3.6288" points="18.48 34.8096 4.032 34.8096 4.032 3.8976 4.032 3.8976 18.48 3.8976"></polyline>
                        <polyline id="Right-border" stroke="#FFFFFF" stroke-width="3.6288" points="21.7728 3.8976 36.2208 3.8976 36.2208 34.8096 22.2920352 34.8096 25.1790076 34.8096"></polyline>
                        <g id="M" transform="translate(8.332800, 4.166400)" fill="#FFFFFF" font-family="Lato-Black, Lato" font-size="24.7296" font-weight="700">
                            <text>
                                <tspan x="0" y="24">M</tspan>
                            </text>
                        </g>
                        <g id="M-triangle" transform="translate(9.408000, 25.603200)" fill="#000000" fill-rule="nonzero">
                            <polygon id="Triangle" transform="translate(18.812001, 2.624344) scale(-1, 1) rotate(-102.000000) translate(-18.812001, -2.624344) " points="18.8120014 0.468343899 20.9742146 4.7803439 16.6497881 4.7803439"></polygon>
                            <polygon id="Triangle" transform="translate(2.564513, 2.624344) rotate(-102.000000) translate(-2.564513, -2.624344) " points="2.56451312 0.468343887 4.72672638 4.78034388 0.402299865 4.78034388"></polygon>
                        </g>
                        <g id="M-Spacers" transform="translate(13.440000, 10.214400)" fill="#000000" fill-rule="nonzero">
                            <rect id="Rectangle-2" x="0" y="0" width="1.23870968" height="18.5372136"></rect>
                            <rect id="Rectangle-2" x="12.2012903" y="0.0617907121" width="1.23870968" height="18.5372136"></rect>
                            <rect id="Rectangle-2" x="5.45032258" y="1.42118638" width="2.60129032" height="18.5372136"></rect>
                        </g>
                    </g>
                </g>
            </g>
        </g>
    </g>
</svg>