<?xml version="1.0" encoding="UTF-8" standalone="no"?>
<svg width="128px" height="156px" viewBox="0 0 128 156" version="1.1" xmlns="http://www.w3.org/2000/svg" xmlns:xlink="http://www.w3.org/1999/xlink">
    <!-- Generator: Sketch 48.1 (47250) - http://www.bohemiancoding.com/sketch -->
    <title>Hit Pause</title>
    <desc>Created with Sketch.</desc>
    <defs></defs>
    <g id="MR-Mobile" stroke="none" stroke-width="1" fill="none" fill-rule="evenodd" transform="translate(0.000000, -1416.000000)">
        <g id="benefits" transform="translate(-33.000000, 1026.000000)">
            <g id="Hit-Pause" transform="translate(0.000000, 382.000000)">
                <path d="M78.406388,20.4907384 C94.1298162,20.4907384 104.701326,50.6222312 120.424754,95.5413973 C124.610253,107.498658 132.68408,126.089835 144.646236,151.314931 C148.57867,154.705773 148.318657,155.928285 143.866198,154.982468 C140.633606,154.295781 117.517686,148.311885 72.863788,147.333501 C61.6299138,147.087363 41.554043,148.414506 12.6361754,151.314931 C21.1916668,135.007591 27.0988489,121.787398 30.3577214,111.654351 C47.4710894,58.4425234 61.29302,20.4907384 78.406388,20.4907384 Z" id="Triangle-2" stroke="#2B2C32" stroke-width="0.5" transform="translate(80.024411, 87.891314) rotate(78.000000) translate(-80.024411, -87.891314) "></path>
                <g id="Pause" transform="translate(58.729412, 63.494118)">
                    <path d="M23.7176471,47.1350707 C36.8165418,47.1350707 47.4352941,36.5835257 47.4352941,23.5675354 C47.4352941,15.84954 45.985124,7.37385228 40.2147246,3.07494415 C36.2536511,0.123971443 29.0493872,0 23.7176471,0 C16.2340557,0 10.0591367,5.85961492 5.71225178,11.2396128 C2.45057215,15.2764874 0,17.9877719 0,23.5675354 C0,28.9712964 2.63412481,37.9337875 5.71225178,41.9093075 C10.0483814,47.5095866 16.0569322,47.1350707 23.7176471,47.1350707 Z" id="Oval-2" stroke="#CC775D" stroke-width="0.632470588"></path>
                    <g transform="translate(15.247059, 14.098436)" fill="#CC775D" id="Rectangle-6">
                        <path d="M0,0 C0.674700262,0.326833582 1.37649401,0.490250372 2.10538123,0.490250372 C2.83426845,0.490250372 4.44600949,0.326833582 6.94060433,0 C6.61298213,1.04597915 6.44917104,1.74670979 6.44917104,2.10219192 C6.44917104,2.45767405 6.61298213,6.88772803 6.94060433,15.3923539 L6.94060433,19.0079131 C3.51993213,18.4227264 1.57379619,18.1301331 1.10219652,18.1301331 C0.630596836,18.1301331 0.263197998,18.4227264 0,19.0079131 C0.481837767,16.7058192 0.72275665,14.9792488 0.72275665,13.8282018 C0.72275665,12.6771548 0.481837767,8.06775422 0,0 Z"></path>
                        <path d="M9.81841588,0 L16.7590202,0 C16.3597711,4.45741558 16.1601466,7.6254011 16.1601466,9.50395657 C16.1601466,11.382512 16.3597711,14.5504976 16.7590202,19.0079131 C15.4736709,18.7161088 14.5309521,18.5702066 13.9308636,18.5702066 C13.3307752,18.5702066 11.9599592,18.7161088 9.81841588,19.0079131 C10.0949672,13.046293 10.2332428,8.55145185 10.2332428,5.5233898 C10.2332428,2.49532775 10.0949672,0.654197819 9.81841588,0 Z"></path>
                    </g>
                </g>
                <text id="HIt-Pause.." transform="translate(115.460989, 24.410408) rotate(12.000000) translate(-115.460989, -24.410408) " font-family="DKMoreOrLess-Regular, DK More Or Less" font-size="24" font-weight="normal" fill="#2B2C32">
                    <tspan x="67.4849886" y="33.9104081">HIt Pause..</tspan>
                </text>
            </g>
        </g>
    </g>
</svg>