<?xml version="1.0" encoding="UTF-8" standalone="no"?>
<svg width="137px" height="166px" viewBox="0 0 137 166" version="1.1" xmlns="http://www.w3.org/2000/svg" xmlns:xlink="http://www.w3.org/1999/xlink">
    <!-- Generator: Sketch 48.1 (47250) - http://www.bohemiancoding.com/sketch -->
    <title>Relax</title>
    <desc>Created with Sketch.</desc>
    <defs></defs>
    <g id="MR-Mobile" stroke="none" stroke-width="1" fill="none" fill-rule="evenodd" transform="translate(0.000000, -1689.000000)">
        <g id="Vickie" transform="translate(-30.000000, 1690.000000)">
            <g id="Relax">
                <text id="z" font-family="DKMoreOrLess-Regular, DK More Or Less" font-size="20" font-weight="normal" fill="#D8D4C0">
                    <tspan x="67.09" y="75.5">z</tspan>
                </text>
                <text id="z" font-family="DKMoreOrLess-Regular, DK More Or Less" font-size="25" font-weight="normal" fill="#D8D4C0">
                    <tspan x="76.3625" y="60.5">z</tspan>
                </text>
                <text id="z" font-family="DKMoreOrLess-Regular, DK More Or Less" font-size="30" font-weight="normal" fill="#D8D4C0">
                    <tspan x="90.135" y="47">z</tspan>
                </text>
                <g id="moon" transform="translate(9.000000, 37.000000)" fill="#737474" fill-rule="nonzero">
                    <path d="M66.3684353,52.0992 C65.7271496,51.312 64.6455781,51.0144 63.7027924,51.3552 C61.046721,52.3104 58.165721,52.8 55.1315781,52.8 C40.6212924,52.8 28.8101496,40.9536 28.8101496,26.4 C28.8101496,17.64 33.1220781,9.4848 40.343721,4.5792 C41.1620781,4.0224 41.5545067,3.0192 41.3343638,2.0544 C41.114221,1.0896 40.3197924,0.36 39.3435067,0.216 C38.2236496,0.0528 37.1085781,0 35.988721,0 C16.1950067,0 0.0958638393,16.1472 0.0958638393,36 C0.0958638393,55.8528 16.1950067,72 35.988721,72 C48.551221,72 59.9795067,65.5968 66.5502924,54.8688 C67.0815067,54 67.009721,52.8912 66.3684353,52.0992 Z M36.0371094,71.1875 C24.8844301,71.1875 15.560395,65.4369954 9.8984375,57.6 C6.85272101,53.3842732 5.46648481,46.7348023 4.01367187,39.1796875 C2.29495327,30.241774 6.80675556,16.9308805 13.8710937,10.2578125 C19.1571551,5.26452855 29.3964536,3.22222113 36.0371094,2.47851562 C30.6483951,8.19531563 28.2890625,19.6302531 28.2890625,27.6894531 C28.2890625,44.8926531 37.0374531,55.5644531 54.1894531,55.5644531 C55.3763103,55.5644531 61.6257455,57.72 62.7695313,57.6 C58.9221983,61.7230764 52.8712328,65.6745286 47.484375,67.2 C44.7499407,67.9743478 38.9794294,71.1875 36.0371094,71.1875 Z" id="Shape"></path>
                </g>
                <path d="M63.25,126.5 C88.2774649,126.5 107.006308,117.431923 117.261447,96.3417845 C121.319888,87.9954244 126.5,73.1545455 126.5,63.25 C126.5,47.0478398 114.207002,30.962662 104.188613,19.7718799 C92.6072599,6.83523017 81.9798502,0 63.25,0 C28.3179896,0 0,28.3179896 0,63.25 C0,98.1820104 28.3179896,126.5 63.25,126.5 Z" id="Oval-4" stroke="#979797" stroke-width="0.5"></path>
                <text id="relax.." transform="translate(133.491694, 145.052876) rotate(-11.000000) translate(-133.491694, -145.052876) " font-family="DKMoreOrLess-Regular, DK More Or Less" font-size="24" font-weight="normal" fill="#2B2C32">
                    <tspan x="101.816694" y="148.052876">relax</tspan>
                    <tspan x="156.416694" y="148.052876" font-size="35">..</tspan>
                </text>
            </g>
        </g>
    </g>
</svg>