<?xml version="1.0" encoding="UTF-8" standalone="no"?>
<svg width="159px" height="96px" viewBox="0 0 159 96" version="1.1" xmlns="http://www.w3.org/2000/svg" xmlns:xlink="http://www.w3.org/1999/xlink">
    <!-- Generator: Sketch 48.1 (47250) - http://www.bohemiancoding.com/sketch -->
    <title>unwind</title>
    <desc>Created with Sketch.</desc>
    <defs></defs>
    <g id="MR-Mobile" stroke="none" stroke-width="1" fill="none" fill-rule="evenodd" transform="translate(-216.000000, -1545.000000)">
        <g id="benefits" transform="translate(-33.000000, 1026.000000)">
            <g id="unwind" transform="translate(250.000000, 510.000000)">
                <text id="UNWIND.." font-family="DKMoreOrLess-Regular, DK More Or Less" font-size="24" font-weight="normal" fill="#2B2C32">
                    <tspan x="64.2873403" y="24.485482">UNWIND..</tspan>
                </text>
                <path d="M30.0522648,82.2473868 C36.6745911,51.7437028 42.9710184,41.5758082 48.9415469,51.7437028 C50.4300824,54.2786998 56.5750211,67.5240731 65.6122967,70.0590701 C69.3077132,71.0956513 71.1856532,39.1166081 78.4493866,40.0680531 C80.8267537,40.3794542 77.9265789,81.5706694 81.5004355,82.2473868 C84.1452469,82.7481874 98.1377826,76.2816203 102.767041,76.5331918 C103.877564,76.5935419 117.188037,76.0230103 130.124401,76.5331918 C145.46713,77.138275 185.350804,77.138275 249.775425,76.5331918" id="Line-2" stroke="#CC775D" stroke-width="0.5" stroke-linecap="square"></path>
                <path d="M19.3565803,76.2859321 C13.7248052,79.3120282 7.85822643,81.9368528 2.46125508,85.3642204 C1.69964578,85.8478833 1.43084131,86.9007645 1.24990926,87.7846436 C0.816445905,89.9021743 -0.486177898,92.3983391 0.644236353,94.2406177 C5.29377255,101.818142 20.3276121,92.8257437 23.4420369,90.8107397 C26.3744262,88.9135109 31.2160042,83.8719287 27.6772104,79.9177011 C24.3051672,76.1497997 18.3290576,71.4553959 12.9505118,71.0413037 C11.5699605,70.9350156 7.82403829,69.9379189 6.89831954,72.2526495 C6.46149254,73.3449217 4.62287834,80.3102998 5.68924216,81.7324514 C6.72321188,83.1114007 8.86864356,83.0909997 10.5300886,83.5494701 C14.7282909,84.7079504 18.9469606,85.8437608 23.2401459,86.5755662 C24.8971579,86.8580162 27.0728707,87.7423293 28.2828833,86.5755662 C30.6705911,84.2732022 29.0614543,80.2984876 27.0715375,78.7063553 C24.8719849,76.9464934 14.3460457,69.3624218 10.3281976,72.4522721 C9.31677979,73.2300839 9.23994941,74.813861 9.11912021,76.0840411 C8.83254863,79.0965375 8.64737444,82.1732303 9.11912021,85.1623294 C9.97552685,90.588736 20.6477779,91.7100662 24.2473323,90.8107397 C26.4670605,90.2561543 27.6088166,81.8526645 25.4586781,79.9177011 C22.3487816,77.1190273 15.2758242,74.0505005 10.9338705,75.6802591 C10.336154,75.9046129 10.3939424,76.8622367 10.3281976,77.4972779 C10.189751,78.8345579 9.58878038,80.4077303 10.3281976,81.5305604 C11.7327595,83.6634354 23.5959024,91.1141986 25.4586781,86.9793481 C28.6609767,79.8711249 16.8724999,77.5234267 12.1452163,78.7063553 C11.7072775,78.8159426 11.5741873,79.4675904 11.5395434,79.9177011 C11.3692342,82.130445 11.3189618,84.3672672 11.5395434,86.5755662 C11.7243847,88.4260599 12.0791232,90.2870736 12.7486208,92.0220855 C13.5717332,94.1551924 14.7081876,96.1719715 15.9766079,98.0742777 C16.2270523,98.4498804 16.7500148,98.5703633 17.1879537,98.6799506 C17.5789246,98.777785 18.2334179,99.0482719 18.3970311,98.6799506 C20.0630056,94.9295562 20.3000257,84.539972 19.6083769,82.1362333 C19.4408103,81.5538767 13.986943,76.0092469 11.7414344,78.5044643 C10.3324219,80.0701641 10.1388831,82.4612483 9.92441565,84.5566565 C9.52730028,88.4365877 9.67579467,92.3649905 9.92441565,96.257259 C10.080887,98.7068847 10.5835152,101.129109 11.1357615,103.520797 C11.1999978,103.798994 11.4741429,104.026095 11.7414344,104.12647 C11.9246734,104.195281 12.7736499,100.584079 13.9599666,95.0481816 C15.3152067,88.72401 18.2214748,82.5262504 21.2212362,76.891605 C21.6704367,76.0478427 22.131423,74.3707954 23.0382549,74.6730727 C23.931347,74.9707701 22.9413112,76.560881 23.0382549,77.4972779 C23.144189,78.5205134 23.2979206,79.5546057 23.6439278,80.523374 C24.3121613,82.3943273 25.3853568,84.1028183 26.064351,85.9698933 C26.2020927,86.3486505 25.8838421,86.8186288 26.064351,87.1789707 C26.1547749,87.3594797 26.5272655,87.0362122 26.670024,87.1789707 C26.8127824,87.3217291 26.670024,87.9865346 26.670024,87.7846436 C26.670024,84.8303649 27.0194449,80.5003343 24.8530052,78.1256352 C23.9463917,77.1318691 23.8001641,81.3239021 24.8530052,82.1611861 C26.1768982,83.2140273 28.2360022,82.1611861 29.9275007,82.1611861 C30.5165384,82.1611861 28.719983,82.345084 28.1603876,82.1611861 C25.8042368,81.3868927 30.7101118,81.580466 27.5796675,81.580466" id="Path-2" stroke="#CC775D" stroke-width="0.5"></path>
            </g>
        </g>
    </g>
</svg>